# xmcd
#
# Track frame offsets: 
#        150
#        11027
#        18795
#        33035
#        43958
#        57059
#        69146
#
# Disc length: 989 seconds
#
# Revision: 0
# Processed by: cddbd v1.5.2PL0 Copyright (c) Steve Scherf et al.
# Submitted via: ExactAudioCopy v1.1
#
DISCID=4903db07
DTITLE=The Fieldspringers - One Cold Day in December
DYEAR=2005
DGENRE=Folk
TTITLE0=Walking in Jerusalem
TTITLE1=I Am A Pilgram
TTITLE2=Carry Me Back
TTITLE3=Iceland-Bound
TTITLE4=I Still Miss Someone
TTITLE5=Bring on the Rain
TTITLE6='Ya Done Stomped on My Heart
EXTD=
EXTT0=
EXTT1=
EXTT2=
EXTT3=
EXTT4=
EXTT5=
EXTT6=
PLAYORDER=
